<svg xmlns="http://www.w3.org/2000/svg" width="1400" height="360" viewBox="0 0 1400 360" role="img" aria-label="CardioIA - Fase 5">
  <defs>
    <linearGradient id="g1" x1="0" y1="0" x2="1" y2="1">
      <stop offset="0" stop-color="#ff3b6b"/>
      <stop offset="0.55" stop-color="#ff7a2f"/>
      <stop offset="1" stop-color="#3ddc97"/>
    </linearGradient>
    <radialGradient id="g2" cx="30%" cy="20%" r="80%">
      <stop offset="0" stop-color="rgba(255,255,255,0.35)"/>
      <stop offset="1" stop-color="rgba(255,255,255,0)"/>
    </radialGradient>
    <filter id="shadow" x="-20%" y="-20%" width="140%" height="140%">
      <feDropShadow dx="0" dy="18" stdDeviation="18" flood-color="#000" flood-opacity="0.35"/>
    </filter>
  </defs>

  <rect x="0" y="0" width="1400" height="360" rx="32" fill="#0b1220"/>
  <path d="M-40,220 C240,40 520,420 820,160 C1030,-20 1220,260 1480,120" fill="none" stroke="rgba(255,255,255,0.10)" stroke-width="2"/>
  <circle cx="260" cy="120" r="220" fill="url(#g2)"/>
  <circle cx="1160" cy="80" r="260" fill="rgba(255,122,47,0.10)"/>
  <circle cx="1080" cy="300" r="260" fill="rgba(61,220,151,0.08)"/>

  <g filter="url(#shadow)">
    <rect x="84" y="72" width="1232" height="216" rx="26" fill="rgba(255,255,255,0.06)" stroke="rgba(255,255,255,0.10)"/>
  </g>

  <g transform="translate(120,108)">
    <rect x="0" y="0" width="86" height="86" rx="26" fill="url(#g1)"/>
    <path d="M43 68c-10-8-22-18-28-28-8-13 1-28 15-28 6 0 10 3 13 7 3-4 7-7 13-7 14 0 23 15 15 28-6 10-18 20-28 28z"
          fill="rgba(255,255,255,0.92)"/>
  </g>

  <g font-family="ui-sans-serif, system-ui, -apple-system, Segoe UI, Roboto, Arial" fill="rgba(255,255,255,0.92)">
    <text x="240" y="145" font-size="44" font-weight="800">CardioIA</text>
    <text x="240" y="188" font-size="22" font-weight="650" fill="rgba(255,255,255,0.75)">
      Fase 5: Assistente cardiológico conversacional (Watson + Flask + React)
    </text>
    <text x="240" y="230" font-size="18" fill="rgba(255,255,255,0.68)">
      Protótipo para atendimento inicial, triagem e pré-agendamento com evidências e documentação.
    </text>
  </g>

  <g transform="translate(1040,122)">
    <rect x="0" y="0" width="236" height="44" rx="999" fill="rgba(0,0,0,0.22)" stroke="rgba(255,255,255,0.12)"/>
    <circle cx="24" cy="22" r="8" fill="#3ddc97"/>
    <text x="42" y="28" font-family="ui-sans-serif, system-ui, -apple-system, Segoe UI, Roboto, Arial"
          font-size="16" font-weight="800" fill="rgba(255,255,255,0.86)">Modo: Watson / Local</text>
  </g>
</svg>
